<svg id="Capa_1" enable-background="new 0 0 512 512" height="40" viewBox="0 0 512 512" width="40" xmlns="http://www.w3.org/2000/svg"><g><path d="m483.637 213.16c-10.222-6.317-21.601-7.603-31.637-6.615v-10.545c0-107.799-88.214-196-196-196-107.799 0-196 88.214-196 196v10.545c-10.036-.989-21.416.298-31.637 6.615-18.821 11.632-28.363 36.139-28.363 72.84 0 36.762 9.56 61.399 28.415 73.228 9.366 5.876 20.304 7.917 31.585 6.947v10.825c0 8.284 6.716 15 15 15h60c8.284 0 15-6.716 15-15v-181c0-8.284-6.716-15-15-15h-44.315c7.608-84.529 78.839-151 165.315-151s157.707 66.471 165.315 151h-44.315c-8.284 0-15 6.716-15 15v181c0 8.284 6.716 15 15 15h45v15c0 24.813-20.187 45-45 45h-48.58c-6.192-17.458-22.865-30-42.42-30h-30c-24.813 0-45 20.187-45 45s20.187 45 45 45h30c19.555 0 36.228-12.542 42.42-30h48.58c41.355 0 75-33.645 75-75 0-18.271 0-28.969 0-40.826 11.282.97 22.221-1.072 31.585-6.947 18.855-11.828 28.415-36.465 28.415-73.227 0-36.701-9.542-61.208-28.363-72.84zm-423.637 122.821c-4.786.833-10.768.891-15.642-2.167-9.259-5.808-14.358-22.789-14.358-47.814 0-24.785 4.985-41.569 14.036-47.259 4.894-3.077 11.06-2.858 15.964-1.89zm60-124.981v151h-30v-151zm166 271h-30c-8.271 0-15-6.729-15-15s6.729-15 15-15h30c8.271 0 15 6.729 15 15s-6.729 15-15 15zm136-120h-30v-151h30zm45.749-28.253c-4.848 3.095-10.896 3.035-15.749 2.194v-99.089c4.904-.968 11.069-1.187 15.964 1.89 9.051 5.689 14.036 22.473 14.036 47.258 0 24.923-5.062 41.88-14.251 47.747z"/></g></svg>