<svg width="24" height="24" viewBox="0 0 24 24" fill="none" xmlns="http://www.w3.org/2000/svg">
													<path d="M12 12.9999C12.5523 12.9999 13 12.5522 13 11.9999C13 11.4477 12.5523 10.9999 12 10.9999C11.4477 10.9999 11 11.4477 11 11.9999C11 12.5522 11.4477 12.9999 12 12.9999Z" stroke="#7E7E7E" stroke-width="2" stroke-linecap="round" stroke-linejoin="round"/>
													<path d="M12 5.99994C12.5523 5.99994 13 5.55222 13 4.99994C13 4.44765 12.5523 3.99994 12 3.99994C11.4477 3.99994 11 4.44765 11 4.99994C11 5.55222 11.4477 5.99994 12 5.99994Z" stroke="#7E7E7E" stroke-width="2" stroke-linecap="round" stroke-linejoin="round"/>
													<path d="M12 19.9999C12.5523 19.9999 13 19.5522 13 18.9999C13 18.4477 12.5523 17.9999 12 17.9999C11.4477 17.9999 11 18.4477 11 18.9999C11 19.5522 11.4477 19.9999 12 19.9999Z" stroke="#7E7E7E" stroke-width="2" stroke-linecap="round" stroke-linejoin="round"/>
												</svg>